<svg aria-hidden="true" style="position: absolute; width: 0; height: 0; overflow: hidden;" version="1.1" xmlns="http://www.w3.org/2000/svg" xmlns:xlink="http://www.w3.org/1999/xlink">
<defs>
<symbol id="icon-stars" viewBox="0 0 192 32">
<path fill="#bea69e" style="fill: var(--color1, #bea69e); stroke: var(--color1, #bea69e)" stroke="#bea69e" stroke-linejoin="round" stroke-linecap="round" stroke-miterlimit="4" stroke-width="3" d="M16 4l3.708 7.899 8.292 1.274-6 6.145 1.416 8.681-7.416-4.101-7.416 4.101 1.416-8.681-6-6.145 8.292-1.274 3.708-7.899z"></path>
<path fill="#bea69e" style="fill: var(--color1, #bea69e); stroke: var(--color1, #bea69e)" stroke="#bea69e" stroke-linejoin="round" stroke-linecap="round" stroke-miterlimit="4" stroke-width="3" d="M56 4l3.708 7.899 8.292 1.274-6 6.145 1.416 8.681-7.416-4.101-7.416 4.101 1.416-8.681-6-6.145 8.292-1.274 3.708-7.899z"></path>
<path fill="#bea69e" style="fill: var(--color1, #bea69e); stroke: var(--color1, #bea69e)" stroke="#bea69e" stroke-linejoin="round" stroke-linecap="round" stroke-miterlimit="4" stroke-width="3" d="M96 4l3.708 7.899 8.292 1.274-6 6.145 1.416 8.681-7.416-4.101-7.416 4.101 1.416-8.681-6-6.145 8.292-1.274 3.708-7.899z"></path>
<path fill="#bea69e" style="fill: var(--color1, #bea69e); stroke: var(--color1, #bea69e)" stroke="#bea69e" stroke-linejoin="round" stroke-linecap="round" stroke-miterlimit="4" stroke-width="3" d="M136 4l3.708 7.899 8.292 1.274-6 6.145 1.416 8.681-7.416-4.101-7.416 4.101 1.416-8.681-6-6.145 8.292-1.274 3.708-7.899z"></path>
<path fill="#fff" style="fill: var(--color2, #fff); stroke: var(--color3, #414141)" opacity="0.2" stroke="#414141" stroke-linejoin="round" stroke-linecap="round" stroke-miterlimit="4" stroke-width="3" d="M176 4l3.708 7.899 8.292 1.274-6 6.145 1.416 8.681-7.416-4.101-7.416 4.101 1.416-8.681-6-6.145 8.292-1.274 3.708-7.899z"></path>
</symbol>
</defs>
</svg>
